<?xml version="1.0" standalone="no"?>
<!DOCTYPE svg PUBLIC "-//W3C//DTD SVG 20010904//EN"
 "http://www.w3.org/TR/2001/REC-SVG-20010904/DTD/svg10.dtd">
<svg version="1.0" xmlns="http://www.w3.org/2000/svg"
 width="1920.000000pt" height="1080.000000pt" viewBox="0 0 1920.000000 1080.000000"
 preserveAspectRatio="xMidYMid meet">
<metadata>
Created by potrace 1.15, written by Peter Selinger 2001-2017
</metadata>
<g transform="translate(0.000000,1080.000000) scale(0.100000,-0.100000)"
fill="#000000" stroke="none">
<path d="M0 5400 l0 -5400 223 0 223 0 17 38 c9 21 17 45 17 52 0 7 6 21 13
29 7 9 26 45 42 81 16 36 34 72 40 80 7 8 20 38 30 65 10 28 21 52 24 55 8 6
46 86 62 128 6 17 15 32 20 32 5 0 9 8 9 19 0 10 7 24 15 31 8 7 15 18 15 26
0 18 71 164 80 164 4 0 10 13 13 29 3 16 12 35 19 42 7 8 26 39 42 69 16 30
35 60 42 66 8 6 14 16 14 22 0 6 3 12 8 14 12 5 78 107 113 176 11 23 25 42
30 42 5 0 9 13 9 28 0 16 9 37 20 47 11 10 20 23 20 29 0 11 121 258 137 279
5 7 18 35 28 62 10 28 21 52 24 55 21 18 42 79 47 136 3 37 9 88 14 113 4 25
6 49 4 52 -2 4 12 24 31 45 19 21 35 42 35 46 0 4 9 8 20 8 11 0 20 7 20 15 0
8 4 15 9 15 5 0 29 19 53 42 24 24 64 61 89 83 53 48 107 114 132 161 9 19 22
34 27 34 6 0 10 13 10 30 0 16 6 33 14 37 13 7 45 103 65 193 4 19 12 44 18
55 6 11 17 50 23 85 6 36 18 75 26 87 8 12 14 31 14 42 0 11 4 22 9 26 5 3 19
36 31 73 12 37 33 83 45 102 24 36 45 117 45 172 0 25 3 29 20 25 16 -4 20 0
20 17 0 13 3 51 6 85 l7 61 -52 0 c-28 0 -51 -4 -51 -10 0 -15 -70 -12 -86 4
-8 8 -14 31 -14 50 0 25 -4 36 -15 36 -11 0 -15 11 -15 40 0 27 4 40 14 40 11
0 13 56 10 317 -3 257 -1 322 11 345 8 18 12 49 10 86 -3 40 -2 48 4 27 7 -29
8 -29 24 24 9 30 17 61 17 68 0 7 3 13 8 13 4 0 23 36 42 80 21 46 42 81 53
83 9 3 17 14 17 25 0 11 7 22 15 26 8 3 15 14 15 25 0 11 11 28 25 39 14 11
25 25 25 31 0 6 7 11 15 11 8 0 15 4 15 9 0 6 10 27 22 48 17 28 24 33 26 20
5 -25 21 -21 32 7 5 14 22 33 37 43 15 10 31 22 34 27 4 5 23 6 43 3 32 -5 34
-4 22 9 -8 8 -28 14 -45 14 -28 0 -31 3 -31 30 0 28 3 30 35 30 25 0 35 -4 35
-16 0 -8 4 -12 10 -9 28 17 2 105 -31 105 -8 0 -9 10 -5 31 3 17 6 35 6 40 0
5 5 9 10 9 6 0 10 -9 10 -20 0 -11 5 -20 10 -20 6 0 10 9 10 20 0 11 7 20 15
20 11 0 15 11 15 40 0 28 4 40 14 40 8 0 16 -6 19 -12 3 -10 8 -8 18 4 8 9 27
22 42 28 36 13 97 13 97 0 0 -6 33 -10 80 -10 44 0 80 4 80 9 0 5 51 12 113
15 166 9 218 16 224 32 3 8 9 14 14 14 23 0 89 95 89 128 0 8 14 46 32 85 19
44 33 93 35 127 2 30 7 57 12 60 5 3 12 40 16 83 3 42 11 77 16 77 5 0 9 13 9
29 0 69 43 208 92 301 28 52 55 97 60 98 4 2 8 8 8 13 0 6 16 34 35 64 32 51
37 55 74 55 22 0 43 5 46 10 12 19 82 11 112 -13 15 -13 52 -32 81 -42 28 -11
52 -23 52 -27 0 -4 35 -8 78 -8 73 0 80 -2 117 -32 21 -18 56 -51 77 -74 21
-23 57 -54 81 -70 59 -40 134 -126 130 -149 -3 -14 76 -71 109 -79 15 -3 33
-12 40 -20 8 -7 25 -17 38 -21 13 -4 30 -14 38 -21 7 -8 22 -14 32 -14 10 0
21 -4 24 -9 3 -4 34 -11 68 -15 117 -13 140 -23 216 -94 40 -37 72 -72 72 -78
0 -6 8 -22 19 -35 10 -13 21 -35 25 -49 10 -36 39 -90 48 -90 5 0 8 -9 8 -21
0 -11 -4 -17 -10 -14 -5 3 -10 4 -10 1 0 -3 14 -13 30 -21 47 -24 219 -21 357
6 51 10 73 10 114 0 27 -7 53 -11 56 -7 3 3 19 -2 35 -10 17 -9 44 -18 61 -20
17 -2 35 -8 40 -13 6 -6 22 -7 37 -4 20 3 31 0 41 -14 8 -11 29 -28 47 -38 17
-11 32 -23 32 -27 0 -4 7 -8 15 -8 8 0 15 -7 15 -15 0 -8 10 -25 23 -39 12
-13 31 -36 42 -50 11 -14 25 -26 32 -26 7 0 20 -8 30 -18 22 -23 113 -19 113
4 0 10 12 14 40 14 32 0 42 -4 49 -21 6 -19 11 -13 28 37 12 32 26 77 32 99 6
22 31 110 55 195 93 329 122 385 277 543 93 94 126 121 167 137 29 11 65 20
80 20 47 0 103 -41 151 -111 25 -36 62 -84 81 -106 19 -22 49 -57 65 -78 51
-64 79 -99 92 -113 7 -7 29 -34 50 -60 21 -26 43 -52 48 -58 6 -6 30 -35 55
-64 25 -30 63 -75 85 -100 22 -25 63 -72 90 -105 94 -111 138 -160 147 -163 4
-2 8 -10 8 -17 0 -7 4 -15 9 -17 4 -1 46 -48 92 -103 98 -117 158 -177 170
-169 5 3 9 -4 9 -15 0 -12 39 -59 98 -117 91 -91 97 -95 100 -70 2 14 8 26 14
26 5 0 8 7 4 15 -14 38 153 67 191 33 10 -9 59 -37 108 -62 50 -25 108 -62
131 -83 71 -66 170 -227 158 -257 -5 -14 5 -16 72 -16 44 0 129 4 189 9 61 6
178 15 260 21 83 6 215 17 295 25 80 8 180 17 223 21 42 3 80 10 83 15 3 5 -4
9 -15 9 -19 0 -20 6 -17 148 1 81 8 164 15 185 15 48 82 114 140 140 88 39
246 -5 297 -83 32 -48 44 -130 33 -229 -10 -93 -18 -123 -37 -137 -29 -21 6
-25 113 -13 102 11 120 20 95 45 -16 16 8 201 31 247 10 21 19 42 19 48 0 6
11 20 25 31 37 29 58 75 52 113 -9 53 2 59 96 58 46 0 94 -4 108 -9 13 -4 45
-7 72 -5 38 2 47 0 47 -13 0 -11 9 -16 30 -16 17 0 30 -4 30 -10 0 -5 23 -10
50 -10 38 0 50 -4 50 -15 0 -8 4 -15 8 -15 13 0 42 34 42 49 0 7 4 10 9 6 6
-3 14 2 20 12 7 13 22 17 66 17 50 -1 58 1 67 22 6 13 15 24 20 24 4 0 8 7 8
15 0 14 56 115 69 125 20 15 81 214 95 310 11 77 58 265 67 268 5 2 9 12 9 22
0 26 97 123 150 150 100 51 270 74 365 49 22 -6 67 -15 100 -19 33 -5 84 -15
113 -21 63 -15 136 -1 223 42 52 26 119 87 119 109 0 5 20 52 45 103 25 52 48
108 51 125 4 17 13 37 20 43 8 6 14 17 14 23 0 18 39 50 91 74 49 24 172 31
184 12 3 -6 15 -10 26 -10 10 0 19 -4 19 -10 0 -5 6 -10 13 -10 8 0 22 -9 32
-20 10 -11 23 -20 30 -20 6 0 17 -24 23 -52 26 -118 33 -242 30 -531 -2 -229
1 -311 10 -339 8 -21 17 -38 22 -38 4 0 11 -17 15 -37 4 -21 10 -40 13 -43 12
-9 48 -92 73 -165 25 -77 37 -90 121 -132 32 -15 58 -31 58 -35 0 -14 75 -39
115 -39 55 0 105 20 149 59 40 35 41 37 82 192 15 58 39 124 53 147 29 46 92
100 128 109 12 4 23 13 23 20 0 10 7 13 23 9 16 -4 24 0 32 17 6 13 20 27 32
33 17 7 21 15 16 33 -5 21 -3 23 16 17 17 -5 21 -2 21 15 0 12 4 18 10 15 6
-4 8 -11 5 -16 -8 -11 -3 -11 29 1 14 5 26 16 26 24 0 12 20 26 36 26 3 0 8
-10 13 -21 l8 -22 21 23 c18 20 22 21 22 7 0 -11 8 -17 22 -17 l22 0 -22 -22
c-18 -19 -24 -20 -31 -9 -5 7 -14 10 -20 7 -6 -4 -21 3 -32 16 -20 22 -21 17
-3 -26 6 -15 -35 -27 -79 -22 -15 2 -27 -1 -27 -5 0 -5 10 -9 21 -9 18 0 19
-3 9 -14 -6 -8 -21 -17 -33 -20 -12 -2 -6 -4 14 -3 20 1 44 -5 53 -12 13 -11
20 -11 28 -3 7 7 16 12 20 12 11 0 10 -27 0 -32 -5 -1 -7 -20 -4 -42 2 -22 8
-33 12 -26 4 6 5 -11 2 -40 -4 -42 -1 -54 16 -70 11 -10 23 -16 26 -13 3 4 6
-2 6 -13 1 -18 1 -18 16 1 11 14 13 32 9 63 -4 27 -2 42 4 42 7 0 11 -23 11
-54 0 -30 4 -58 10 -61 5 -3 10 2 11 12 0 11 3 13 6 5 3 -7 -2 -28 -11 -46 -8
-18 -22 -59 -31 -92 -8 -32 -18 -67 -21 -77 -4 -13 -2 -17 5 -13 13 8 13 -31
1 -79 l-8 -30 -2 30 c-1 24 -3 26 -9 11 -5 -14 -10 -5 -19 35 -7 30 -14 63
-16 74 -1 11 -10 37 -19 59 -9 21 -17 49 -17 63 0 13 -4 22 -8 19 -5 -3 -5
-29 -1 -58 5 -29 11 -89 14 -133 3 -44 10 -147 15 -230 36 -517 45 -1156 32
-2185 -5 -404 -6 -755 -3 -780 l7 -45 7 40 c4 22 7 94 8 160 1 91 3 110 10 80
4 -22 8 -80 9 -130 l2 -90 13 55 c22 89 38 688 25 944 -5 116 -11 336 -12 488
-1 227 1 280 13 294 13 16 14 15 19 -11 3 -15 6 167 7 406 2 467 8 596 26 564
6 -12 8 -97 5 -249 -3 -127 -3 -305 1 -396 l6 -165 8 244 c4 134 7 301 8 370
1 69 5 137 10 151 5 14 6 -162 2 -415 -4 -242 -6 -451 -4 -465 1 -14 5 -176 7
-360 4 -327 7 -371 22 -356 4 4 10 222 13 484 9 726 40 1440 65 1500 18 44 18
66 -1 82 -12 10 -15 10 -15 -1 0 -12 -2 -12 -9 -1 -12 20 -31 -39 -31 -97 0
-70 -17 -85 -22 -20 -3 30 -1 58 4 63 4 6 8 20 8 32 0 13 5 26 11 29 5 4 7 19
4 35 -5 22 -2 28 14 33 12 3 21 0 21 -6 0 -6 6 -2 14 9 16 22 12 86 -5 92 -5
2 -9 17 -9 33 0 35 -23 30 -45 -10 l-14 -26 -1 28 c0 17 5 27 15 27 19 0 19
14 0 30 -9 7 -13 20 -10 28 3 8 -3 16 -14 19 -17 4 -20 16 -23 99 -2 78 -1 91
10 77 6 -9 12 -38 12 -65 0 -36 4 -50 19 -58 11 -5 34 -32 52 -60 18 -27 34
-50 36 -50 3 0 3 10 2 23 -2 13 8 34 25 52 22 24 29 27 36 15 16 -25 11 -38
-10 -33 -14 4 -20 0 -20 -11 0 -9 6 -13 14 -10 13 5 13 -2 2 -50 -7 -31 -18
-61 -23 -68 -6 -7 -13 -47 -16 -88 -4 -45 -3 -69 3 -61 12 20 40 -3 40 -33 0
-11 9 -34 19 -50 11 -17 17 -34 15 -38 -3 -5 1 -20 10 -33 9 -13 16 -31 16
-39 0 -14 29 -76 41 -86 3 -3 13 -27 23 -55 28 -76 40 -105 47 -105 3 0 16
-24 28 -52 12 -29 31 -69 42 -89 27 -52 34 -120 19 -198 -14 -74 -2 -141 26
-141 8 0 14 -10 14 -24 0 -37 10 -56 30 -56 10 0 20 -10 24 -24 5 -21 10 -23
56 -18 39 4 50 1 50 -10 0 -12 22 -14 118 -15 106 0 110 1 42 7 l-75 6 73 2
c54 2 77 -2 88 -13 14 -13 12 -15 -13 -15 -27 0 -28 -2 -25 -37 l4 -38 -64
-17 c-35 -9 -89 -21 -120 -28 -31 -6 -62 -18 -69 -26 -7 -9 -21 -13 -32 -10
-18 4 -156 -32 -167 -44 -16 -18 -71 -33 -112 -31 l-48 3 0 -56 0 -56 40 0
c33 0 40 -4 40 -19 0 -15 9 -20 43 -24 23 -3 74 -12 112 -20 100 -22 321 -42
455 -42 l115 0 10 80 c6 44 15 81 21 82 7 1 14 -21 18 -55 10 -83 -8 -859 -20
-871 -3 -3 -10 2 -16 12 -9 16 -12 14 -30 -19 -23 -43 -27 -48 -92 -97 -53
-40 -86 -92 -86 -135 0 -15 14 -68 31 -117 41 -117 47 -188 24 -266 -25 -82
-16 -100 65 -122 47 -14 65 -15 76 -6 21 17 42 4 46 -28 4 -34 32 -38 36 -5 2
12 16 29 31 37 16 8 31 20 33 27 3 7 6 112 7 233 1 121 7 252 11 290 14 108
12 254 -6 372 -19 120 -19 146 -9 953 6 533 16 696 28 480 3 -56 10 -107 16
-113 8 -8 11 -5 11 11 0 12 4 22 9 22 5 0 8 -198 7 -467 -1 -358 2 -478 12
-511 7 -23 17 -40 22 -37 6 4 11 50 11 103 2 145 6 156 54 159 22 2 61 10 88
18 26 9 84 16 130 16 55 0 87 5 98 15 8 7 47 16 90 19 40 3 118 15 171 26 110
22 173 30 235 29 24 -1 63 6 88 15 25 8 63 15 84 15 56 0 141 28 135 44 -6 16
49 41 83 38 13 -1 51 7 85 19 36 12 64 16 67 11 3 -5 56 -15 116 -21 189 -19
285 -34 285 -42 0 -5 18 -9 40 -9 22 0 40 -4 40 -9 0 -5 13 -9 29 -9 15 1 33
-2 40 -6 13 -8 15 -56 2 -56 -16 0 -51 -85 -51 -126 0 -54 -23 -124 -44 -136
-12 -7 -31 -2 -68 16 -29 14 -59 26 -68 26 -22 0 -51 -33 -70 -79 -27 -66
-130 -229 -156 -246 -24 -16 -26 -15 -60 14 -24 22 -45 31 -69 31 -43 0 -78
31 -70 63 3 12 -2 31 -10 41 -13 17 -30 19 -172 21 -87 1 -186 7 -220 14 -55
12 -66 12 -87 -3 -40 -26 -63 -20 -94 24 -36 52 -74 56 -150 18 -64 -32 -119
-83 -162 -152 -118 -184 -114 -181 -207 -146 -56 21 -86 17 -113 -14 -9 -12
-22 -15 -41 -11 -24 5 -29 3 -33 -17 -5 -26 -20 -348 -20 -418 2 -94 25 -479
35 -570 17 -158 23 -183 52 -236 27 -49 31 -52 75 -57 26 -2 76 -18 112 -35
138 -65 297 -122 374 -136 145 -26 336 -38 417 -25 95 15 296 8 326 -11 12 -8
28 -27 34 -42 13 -32 34 -39 177 -62 253 -40 263 -40 450 -23 306 30 642 18
803 -27 79 -22 143 -29 194 -22 l45 7 0 2269 0 2268 -23 6 c-22 5 -23 9 -17
53 3 27 10 54 14 62 6 9 -1 20 -20 36 -24 19 -26 25 -16 38 7 8 25 18 39 22
22 5 24 8 12 16 -11 8 -11 12 -1 16 9 4 12 56 12 224 l-1 220 -25 -36 c-13
-20 -24 -40 -24 -45 0 -5 -10 -16 -23 -25 -17 -11 -35 -13 -75 -6 -56 9 -78
-2 -40 -20 26 -11 68 -102 68 -148 0 -15 -12 -44 -27 -64 -22 -28 -36 -37 -63
-38 -24 -1 -28 -3 -12 -6 33 -7 56 -47 49 -88 -7 -41 -59 -121 -76 -117 -7 1
-20 -7 -30 -19 -11 -14 -31 -23 -55 -24 -25 -2 -42 -9 -52 -24 -8 -11 -22 -21
-30 -21 -18 0 -18 -4 7 -82 13 -42 19 -85 17 -119 -3 -48 -6 -54 -26 -57 -24
-4 -42 -36 -42 -77 0 -28 -54 -94 -67 -82 -4 5 1 15 11 23 17 12 18 19 9 59
-6 25 -7 48 -3 50 19 12 4 82 -27 129 -29 45 -32 55 -27 100 3 28 12 56 20 62
11 9 14 30 12 80 -3 59 -5 65 -14 45 -9 -20 -12 -22 -17 -8 -12 31 -36 19 -42
-20 -14 -85 -42 -115 -93 -99 -33 11 -61 91 -32 91 8 0 14 -6 13 -13 -3 -13
31 -52 46 -52 6 0 3 12 -5 28 -7 15 -14 33 -14 40 0 7 -11 17 -25 22 -22 8
-24 13 -15 29 5 11 15 23 20 26 6 3 0 16 -13 28 -12 12 -27 31 -33 42 -8 15
-21 19 -45 18 -95 -6 -110 -4 -141 13 -18 11 -41 36 -51 56 -16 34 -17 39 -2
73 20 49 19 68 -4 113 -43 83 -46 92 -33 112 11 17 8 20 -26 29 -20 5 -68 12
-105 15 -78 8 -176 31 -191 46 -5 5 -18 10 -27 10 -29 0 -169 79 -169 96 0 6
-11 21 -25 34 -14 13 -25 27 -25 32 0 5 -5 14 -10 21 -29 34 -80 108 -111 160
-18 31 -37 57 -41 57 -5 0 -8 9 -8 19 0 36 -22 36 -52 1 -27 -34 -28 -34 -28
-9 0 13 7 34 14 45 8 12 23 45 33 74 11 30 23 55 28 57 6 1 20 -13 33 -32 18
-29 28 -35 56 -35 18 0 45 -9 59 -20 14 -11 28 -20 31 -20 4 0 22 -10 41 -22
23 -15 35 -31 35 -46 0 -15 10 -29 31 -40 38 -21 96 -69 164 -137 33 -34 65
-55 95 -64 25 -8 59 -20 77 -27 17 -8 38 -14 46 -14 8 0 40 -11 71 -25 31 -14
63 -25 70 -25 8 0 29 -8 48 -17 59 -29 68 -33 78 -33 6 0 8 5 5 10 -4 6 -4 24
0 40 5 24 12 30 34 30 15 0 32 5 39 12 18 18 15 58 -4 58 -8 0 -12 4 -9 10 11
18 46 11 66 -12 21 -26 26 -97 8 -130 -6 -11 -9 -21 -7 -23 2 -1 26 2 54 8 28
6 59 7 70 2 10 -4 28 -9 39 -11 39 -7 95 -27 95 -35 0 -5 19 -18 41 -30 23
-11 51 -29 62 -40 15 -14 35 -19 72 -19 28 0 56 -5 63 -12 19 -19 42 8 35 42
-3 18 1 37 11 51 9 13 16 31 16 40 0 9 9 24 20 34 11 10 17 21 15 25 -3 5 5 6
17 2 15 -4 19 -2 14 7 -7 10 -3 10 15 0 13 -7 31 -15 39 -19 8 -4 18 -18 21
-31 4 -13 7 390 8 895 1 860 0 921 -16 939 -17 18 -17 19 2 33 12 9 14 14 5
14 -11 0 -11 3 -2 12 19 19 16 876 -3 902 -20 27 -30 103 -16 120 10 11 5 22
-20 50 -26 31 -28 36 -13 36 18 1 18 1 2 14 -25 19 -22 40 7 56 20 11 27 11
40 0 13 -11 15 30 15 399 l0 411 -4268 0 -4268 0 -12 -33 c-7 -18 -12 -67 -12
-108 0 -51 -5 -84 -18 -106 -9 -18 -28 -54 -42 -80 -14 -26 -32 -55 -41 -63
-9 -8 -19 -32 -23 -52 -4 -20 -12 -38 -19 -41 -14 -4 -13 -307 1 -316 12 -8
22 -173 27 -471 6 -276 12 -370 26 -370 12 0 11 -316 -1 -400 -29 -199 -41
-444 -43 -868 -1 -307 2 -445 9 -450 6 -4 14 -29 16 -56 3 -27 10 -51 15 -55
18 -11 30 -51 39 -121 3 -25 10 -46 15 -48 11 -4 12 -43 2 -41 -27 4 -43 -3
-43 -21 0 -17 7 -20 40 -20 39 0 40 1 40 34 0 31 3 34 37 41 24 4 39 3 41 -4
5 -15 33 -13 56 4 11 8 28 15 38 15 17 0 45 37 40 54 -2 5 4 6 13 3 8 -4 15
-2 15 4 0 6 3 8 8 6 8 -4 43 29 36 36 -8 8 109 26 201 31 69 4 95 10 115 25
107 86 107 86 215 84 102 -1 167 -18 190 -50 12 -17 78 -32 140 -33 36 0 123
-26 135 -40 3 -3 19 -10 35 -16 23 -7 36 -6 57 5 25 15 28 14 57 -17 17 -18
43 -58 57 -90 34 -75 29 -139 -15 -204 -17 -25 -31 -53 -31 -62 0 -9 -8 -19
-17 -22 -32 -10 -78 -37 -86 -51 -4 -7 -15 -13 -23 -13 -8 0 -19 -10 -25 -23
-6 -13 -27 -30 -47 -37 -20 -7 -45 -22 -54 -32 -9 -11 -22 -17 -29 -13 -6 4
-15 2 -19 -5 -4 -7 -31 -13 -63 -13 -56 -1 -101 15 -124 43 -12 13 -15 13 -27
-3 -8 -10 -24 -19 -36 -20 -13 -1 -26 -11 -31 -25 -8 -21 -11 -22 -26 -11 -9
8 -25 12 -36 11 -11 -2 -31 2 -43 9 -21 11 -26 9 -49 -17 -14 -16 -25 -32 -25
-35 0 -3 -26 -12 -57 -18 -82 -18 -85 -20 -78 -31 10 -16 -22 -12 -53 8 -54
32 -92 71 -92 91 0 12 -6 21 -14 21 -8 0 -23 17 -33 38 -18 38 -68 71 -109 72
-12 0 -34 10 -50 23 -30 23 -87 47 -116 47 -9 0 -28 14 -41 30 -32 37 -51 38
-81 3 -21 -25 -25 -26 -66 -15 -47 12 -87 2 -96 -23 -4 -8 -12 -15 -20 -15 -8
0 -14 -7 -14 -16 0 -14 -8 -16 -49 -12 -58 6 -116 -17 -116 -46 0 -34 -76 -52
-158 -38 -38 7 -73 10 -78 6 -6 -3 -7 -25 -3 -52 l7 -46 -37 22 c-34 20 -39
21 -53 6 -10 -10 -27 -14 -44 -12 -16 3 -30 1 -31 -4 -2 -4 -18 -4 -36 2 -28
7 -37 6 -55 -10 -28 -26 -33 -25 -54 10 -17 30 -27 34 -69 31 -17 -2 -28 10
-48 52 -24 52 -27 54 -66 55 -23 1 -46 5 -52 8 -6 4 -14 1 -18 -5 -4 -7 -18
-13 -31 -14 -13 0 -28 -6 -32 -12 -6 -7 -10 -6 -14 2 -2 7 -22 17 -44 23 -28
8 -39 16 -39 30 0 12 -7 20 -16 20 -9 0 -25 10 -35 22 -11 11 -21 19 -24 16
-9 -9 -6 -143 4 -177 9 -29 8 -34 -9 -38 -22 -6 -26 -23 -9 -40 12 -12 18
-148 6 -159 -4 -4 -22 -1 -39 8 -33 15 -33 15 -75 -29 -52 -53 -55 -72 -7 -44
19 12 42 21 50 21 8 0 14 5 14 10 0 6 9 10 20 10 27 0 25 -18 -2 -29 -13 -5
-33 -19 -46 -30 -16 -16 -33 -21 -62 -19 -22 1 -40 6 -40 11 0 12 -26 37 -39
37 -6 0 -11 -6 -11 -14 0 -9 -7 -12 -20 -9 -11 3 -20 11 -20 18 0 17 -29 47
-40 40 -4 -2 -18 19 -30 47 -12 29 -28 57 -35 63 -24 19 -26 62 -5 115 11 28
20 63 19 78 -1 15 1 34 5 43 5 10 -1 19 -17 26 -30 14 -66 103 -41 103 10 0
14 13 15 43 1 23 3 34 6 25 5 -20 28 -24 38 -7 4 5 18 14 31 20 20 7 32 4 56
-14 22 -16 32 -18 35 -9 5 14 83 17 83 2 0 -5 18 -10 40 -10 36 0 40 -3 40
-24 0 -26 20 -30 42 -8 7 7 22 12 34 12 28 0 37 13 59 78 11 34 21 50 28 45 7
-4 6 0 -1 10 -16 19 -7 77 13 77 8 0 14 19 17 52 6 60 2 78 -18 78 -8 0 -14 7
-14 15 0 8 -7 15 -15 15 -8 0 -15 4 -15 9 0 5 -10 11 -22 13 -17 2 -24 11 -26
31 -3 20 -9 27 -25 27 -26 1 -57 22 -57 39 0 7 -5 9 -12 5 -8 -5 -9 -2 -3 12
5 10 8 38 8 62 0 23 4 42 9 42 5 0 8 8 7 18 -1 9 3 30 9 45 7 16 12 35 12 43
0 8 10 14 25 14 15 0 25 6 25 14 0 9 15 17 40 21 25 4 40 12 40 21 0 19 7 18
41 -7 16 -11 29 -17 29 -12 0 4 8 -4 17 -17 23 -33 26 -206 4 -219 -8 -5 -11
-16 -8 -25 4 -9 2 -16 -2 -16 -5 0 -7 -8 -4 -19 3 -11 -2 -21 -11 -24 -20 -8
-21 -33 -1 -41 17 -6 75 43 75 63 0 15 9 14 26 -4 9 -8 24 -15 35 -15 10 0 19
-5 19 -11 0 -6 6 -9 14 -6 7 3 18 1 23 -4 6 -6 25 -11 44 -12 19 -1 39 -5 44
-9 6 -3 70 -5 142 -3 123 3 133 2 138 -16 4 -10 10 -19 15 -19 5 0 28 -18 50
-40 44 -43 56 -49 46 -24 -4 12 7 21 44 37 27 11 52 29 56 39 3 10 14 23 25
28 10 6 19 16 19 22 0 13 36 45 60 53 22 7 33 57 20 91 -6 14 -7 30 -4 35 3 6
7 78 9 161 2 105 7 153 16 158 11 8 9 61 -7 167 -3 18 0 67 5 110 6 43 13 269
16 503 3 234 12 547 21 695 8 149 18 327 21 398 4 87 9 127 17 127 16 0 46
264 40 359 -2 40 -9 80 -15 87 -6 8 -9 14 -6 14 6 0 -86 157 -104 179 -8 9 -9
37 -4 95 4 44 8 95 9 111 l1 30 -930 2 -930 3 -18 -76 c-20 -85 -63 -180 -118
-266 -25 -40 -38 -72 -42 -110 -3 -34 -23 -90 -55 -158 -85 -180 -86 -186 -85
-500 1 -298 14 -473 37 -496 14 -14 46 -10 46 6 0 5 9 6 20 3 11 -3 20 -11 20
-19 0 -7 9 -18 20 -24 11 -6 20 -15 20 -21 0 -5 18 -28 40 -50 22 -22 40 -44
40 -49 0 -17 73 -80 92 -80 19 0 20 -4 14 -55 -4 -33 -2 -55 3 -55 8 0 7 -41
-1 -44 -2 0 -23 -11 -48 -24 -33 -16 -62 -22 -112 -22 -63 0 -68 -2 -68 -22 0
-12 -10 -32 -22 -45 -13 -14 -21 -35 -20 -55 0 -18 -4 -36 -10 -39 -6 -4 -13
-42 -15 -86 -5 -79 0 -98 52 -243 14 -38 16 -67 10 -180 -15 -288 -15 -287 62
-388 20 -26 41 -58 47 -72 6 -14 14 -28 19 -31 5 -3 14 -39 21 -80 11 -64 15
-74 34 -77 12 -2 22 -8 22 -13 0 -16 57 -69 74 -69 9 0 15 -3 14 -7 -1 -5 4
-19 12 -33 7 -14 16 -38 20 -55 3 -18 15 -34 28 -40 12 -6 20 -16 17 -23 -3
-8 -5 -40 -5 -73 l0 -59 -48 0 c-26 0 -61 -4 -77 -8 -35 -10 -115 4 -115 20 0
6 8 17 18 24 16 13 16 13 0 14 -19 0 -26 30 -7 30 5 0 8 4 5 9 -9 14 5 41 21
41 8 0 11 5 8 10 -3 6 -15 10 -26 10 -10 0 -19 7 -19 15 0 8 -5 15 -10 15 -20
0 -70 -31 -70 -43 0 -16 -88 -47 -133 -47 -20 0 -59 5 -86 11 -47 10 -53 9
-81 -13 -35 -27 -44 -52 -31 -93 8 -25 9 -26 10 -7 1 31 12 28 49 -14 17 -19
35 -33 40 -30 13 8 52 -23 52 -40 0 -16 17 -19 22 -3 3 8 14 8 41 1 30 -8 37
-8 37 3 0 22 14 25 48 13 30 -12 30 -12 9 -23 -20 -10 -21 -17 -18 -93 3 -77
1 -86 -25 -123 -15 -22 -35 -44 -45 -49 -9 -5 -20 -26 -24 -47 -4 -21 -12 -44
-17 -51 -8 -9 -8 -24 1 -52 10 -35 9 -42 -12 -72 -34 -50 -85 -97 -122 -112
-18 -8 -35 -12 -38 -10 -2 2 -22 6 -44 8 -55 6 -81 23 -75 51 3 17 -3 28 -21
40 -14 9 -27 25 -30 35 -6 23 -27 27 -27 6 0 -8 -4 -17 -9 -20 -5 -3 0 25 12
63 22 78 19 97 -19 111 -22 9 -25 14 -19 38 5 25 1 32 -32 54 -21 13 -46 27
-55 31 -9 3 -29 24 -43 46 -14 23 -30 40 -35 38 -5 -1 -20 11 -33 27 -20 25
-26 27 -45 17 -14 -7 -23 -8 -27 -1 -12 19 -22 1 -29 -47 -11 -82 -75 -192
-112 -193 -7 0 -29 -17 -51 -37 -84 -81 -101 -93 -132 -93 -60 0 -131 22 -189
59 -51 33 -63 48 -97 116 -21 42 -39 91 -41 109 -2 17 -12 38 -21 46 -46 38
-58 72 -58 158 0 68 3 86 18 96 9 7 17 18 17 25 0 6 11 16 25 21 14 6 37 15
53 21 15 7 35 13 45 14 9 1 26 11 37 23 19 20 55 25 161 23 52 0 144 61 172
115 14 28 99 84 127 84 19 0 47 33 32 38 -6 2 -12 8 -12 13 0 6 4 7 10 4 5 -3
25 -2 43 3 19 6 41 6 49 1 13 -7 16 -1 16 33 1 23 -4 50 -9 60 -19 35 -13 151
10 203 23 52 27 118 10 162 -6 15 -11 66 -12 113 0 109 17 148 84 191 26 18
60 49 74 70 14 22 30 39 35 39 6 0 10 6 10 13 0 6 18 25 40 40 22 16 40 34 40
42 0 7 7 16 16 19 8 3 13 10 9 16 -3 5 -1 19 6 31 8 16 8 23 0 29 -19 11 -25
141 -11 212 14 70 20 121 25 218 1 36 8 94 14 130 7 36 16 139 21 229 5 90 12
167 17 170 13 9 15 335 2 368 -6 15 -15 48 -19 73 -21 106 -30 141 -46 165 -9
14 -13 25 -10 25 3 0 -5 17 -18 39 -45 70 -57 114 -66 226 -4 61 -13 128 -20
150 -21 75 -29 120 -30 178 l0 57 -3825 0 -3825 0 0 -5400z m14863 4830 c8
-46 5 -101 -8 -132 -6 -15 -2 -18 21 -19 28 -2 28 -2 4 -6 -14 -3 -30 -9 -36
-14 -13 -11 -122 0 -130 12 -3 5 4 9 15 9 24 0 25 3 9 29 -9 15 -9 32 1 73 17
77 31 94 77 93 38 0 39 -1 47 -45z m-8777 19 c126 -22 196 -59 252 -132 129
-169 161 -385 85 -572 -27 -68 -41 -87 -98 -131 -52 -41 -99 -64 -160 -80 -99
-27 -250 22 -333 107 -51 51 -117 184 -133 266 -16 86 -7 224 20 302 36 103
149 206 258 236 27 7 48 14 49 14 0 1 27 -4 60 -10z m-935 -59 c90 -17 174
-64 218 -123 70 -93 93 -152 93 -237 1 -271 -202 -532 -425 -548 -144 -11
-303 73 -365 192 -79 152 -71 273 30 444 49 84 180 211 258 250 69 34 104 38
191 22z m11948 -45 c24 -51 61 -195 61 -237 0 -66 -73 -2 -90 79 -5 21 -11 73
-15 115 -10 111 5 126 44 43z m-795 -57 c26 -132 77 -1012 60 -1039 -3 -6 -12
-5 -21 3 -36 29 -43 75 -48 281 -8 359 -17 560 -30 662 -13 109 -12 125 15
125 12 0 20 -10 24 -32z m-1465 -65 c6 -11 5 -26 -1 -42 -5 -15 -11 -61 -14
-104 -4 -86 -20 -151 -40 -168 -20 -17 -36 34 -28 89 6 39 5 44 -9 39 -23 -9
-47 19 -47 54 0 23 6 32 33 42 l32 14 -27 6 c-30 8 -38 34 -13 43 8 4 15 12
15 19 0 25 85 32 99 8z m-1144 -140 c-4 -21 -14 -51 -22 -68 -20 -38 -53 -187
-53 -239 0 -63 -41 -198 -56 -183 -4 4 20 151 32 195 4 12 2 22 -2 22 -14 0
-97 -364 -133 -580 -6 -36 -28 -162 -50 -280 -46 -249 -75 -476 -92 -710 -17
-254 -29 -313 -23 -119 3 91 9 192 14 225 5 32 21 158 35 279 27 230 45 361
71 509 8 48 13 95 10 103 -4 9 -2 11 6 7 8 -5 9 5 5 36 -3 24 -2 38 2 31 5 -7
11 12 14 48 4 32 20 112 37 177 17 64 29 119 26 121 -3 3 -10 -13 -16 -36 -6
-23 -13 -41 -16 -41 -16 0 33 219 91 405 22 72 24 75 19 30 -4 -27 -10 -54
-14 -60 -11 -14 -54 -225 -47 -231 3 -3 8 10 12 28 4 18 13 51 20 73 7 22 21
67 30 100 26 89 76 195 93 195 11 0 13 -8 7 -37z m3929 -115 c1 -91 -18 -146
-52 -154 -15 -4 -40 -20 -57 -36 -26 -26 -30 -28 -41 -14 -21 29 -27 170 -10
230 24 83 81 111 130 64 26 -24 29 -34 30 -90z m-444 58 c0 -7 6 -26 14 -42 8
-16 21 -78 30 -139 35 -246 48 -324 67 -415 30 -142 48 -285 49 -380 0 -47 7
-139 15 -205 8 -65 15 -158 15 -205 0 -47 4 -121 9 -165 12 -100 1 -297 -16
-303 -7 -2 -15 2 -17 10 -2 7 -11 37 -21 66 -20 60 -31 296 -29 597 1 99 -1
182 -5 185 -4 3 -19 59 -33 125 -25 109 -49 287 -94 670 -15 135 -12 231 7
220 5 -4 9 -12 9 -19z m-2440 -110 c0 -28 -7 -81 -15 -119 -8 -37 -17 -95 -21
-127 -4 -33 -11 -63 -15 -66 -5 -3 -9 -32 -9 -64 0 -32 -4 -60 -10 -62 -5 -1
-13 -52 -17 -113 -7 -100 -10 -110 -27 -110 -15 0 -23 -11 -33 -50 -12 -50
-12 -50 -8 35 3 47 12 126 21 175 8 50 17 155 19 235 5 163 29 281 67 325 21
24 23 25 35 9 7 -10 13 -41 13 -68z m841 -3 c14 -35 14 -541 0 -637 -10 -72
-26 -99 -61 -101 -19 -2 -20 4 -20 144 1 128 9 221 35 379 6 30 4 42 -5 42 -9
0 -10 11 -5 38 3 20 8 60 9 88 5 78 27 99 47 47z m285 -269 c75 -293 154 -728
154 -848 0 -32 -15 -61 -18 -33 -10 129 -47 360 -88 557 -23 111 -117 522
-129 567 -3 10 4 -1 15 -23 11 -23 40 -122 66 -220z m-836 17 c6 -64 15 -159
21 -211 50 -472 70 -770 52 -770 -9 0 -33 219 -53 505 -6 83 -20 247 -31 365
-10 118 -19 231 -18 250 l1 35 8 -29 c5 -16 14 -81 20 -145z m1460 67 c24 -59
59 -339 47 -373 -5 -12 -11 -14 -25 -6 -38 20 -61 114 -63 252 -2 107 5 149
22 149 5 0 14 -10 19 -22z m-497 -443 c36 -176 58 -310 87 -520 57 -422 80
-634 80 -745 0 -51 -2 -91 -5 -88 -3 2 -12 87 -20 189 -15 184 -35 374 -56
544 -16 131 -87 551 -104 610 -8 27 -28 120 -44 205 -17 85 -35 171 -41 190
-5 19 -10 44 -9 55 1 22 86 -311 112 -440z m1475 370 c15 -33 15 -161 1 -206
-6 -19 -13 -41 -15 -49 -4 -12 -7 -12 -13 -1 -12 19 -22 -1 -24 -49 -2 -52
-10 -41 -41 50 -31 95 -43 194 -26 215 11 14 14 13 24 -1 11 -14 14 -10 28 25
19 48 48 55 66 16z m-2098 -37 c26 -98 30 -118 44 -219 18 -122 20 -159 7
-159 -22 0 -91 296 -91 391 0 45 27 36 40 -13z m2957 -37 c28 -25 32 -36 38
-102 4 -41 6 -81 5 -89 -5 -36 1 -42 19 -19 17 21 18 27 5 51 -19 37 -18 43
14 73 l27 26 23 -27 c18 -21 22 -34 18 -58 -4 -17 -10 -51 -14 -76 -9 -51 -28
-90 -43 -90 -15 0 -39 26 -39 42 0 10 -3 9 -10 -2 -5 -8 -12 -44 -15 -80 -8
-84 -34 -211 -47 -227 -17 -21 -43 -15 -75 20 -51 53 -57 89 -44 256 14 170
34 270 62 306 26 32 37 32 76 -4z m-3971 -424 c-19 -418 -28 -500 -61 -565
-23 -45 -24 -46 -25 -17 -1 128 35 589 56 730 15 94 29 188 32 210 13 95 13
-19 -2 -358z m-10606 229 c8 -7 49 -34 90 -59 102 -64 122 -84 144 -142 10
-28 25 -65 33 -84 17 -38 13 -157 -8 -221 -20 -62 -62 -144 -87 -170 -46 -48
-55 -113 -23 -166 16 -26 17 -36 8 -67 -10 -30 -17 -37 -42 -39 -47 -5 -66
-53 -58 -151 4 -60 2 -87 -12 -122 -9 -25 -21 -45 -26 -45 -5 0 -9 -14 -9 -31
0 -29 -1 -30 -42 -27 -35 2 -45 8 -56 31 -7 15 -17 27 -23 27 -5 0 -9 16 -9
35 0 56 -27 75 -102 72 -65 -2 -128 16 -128 37 0 7 8 21 18 32 10 10 21 27 25
37 4 11 15 21 26 24 15 4 17 12 13 53 -4 48 -3 50 31 70 40 24 53 50 38 77
-11 21 -58 63 -70 63 -5 0 -21 15 -37 34 -16 18 -44 41 -61 50 -30 15 -38 26
-34 49 0 4 -4 7 -9 7 -6 0 -30 21 -54 46 -37 38 -46 56 -56 110 -12 60 -11 67
16 141 16 43 30 70 32 61 2 -10 8 -18 14 -18 16 0 48 31 48 47 0 15 16 17 25
3 3 -5 22 -10 41 -10 19 0 34 5 34 10 0 6 -14 10 -31 10 -29 0 -30 2 -27 38 3
40 -3 38 106 41 17 1 32 6 32 12 0 6 -8 8 -19 4 -24 -7 -111 14 -111 28 0 6 3
8 6 4 4 -3 13 0 21 8 8 9 33 15 58 15 38 0 49 5 76 34 17 19 41 36 53 38 11 2
20 10 18 17 -2 11 9 13 55 7 31 -4 64 -13 73 -20z m15310 -341 c0 -8 6 -15 14
-15 8 0 17 -4 20 -9 24 -39 8 -468 -19 -521 -18 -36 -26 -37 -76 -8 -62 34
-70 69 -59 240 14 201 18 217 74 301 20 29 46 36 46 12z m-3485 -41 c3 -20 4
-102 0 -183 -3 -80 -8 -240 -10 -356 -5 -225 -17 -362 -36 -396 -11 -21 -11
-21 -30 -3 -13 14 -20 42 -26 104 -10 109 -10 757 -1 791 10 33 55 79 78 79
12 0 20 -11 25 -36z m3158 -69 c26 -25 39 -84 35 -147 -7 -91 -45 -108 -104
-47 -24 25 -28 38 -28 82 0 91 55 154 97 112z m-430 -64 c38 -37 47 -111 46
-396 l0 -270 -31 -48 c-48 -75 -87 -84 -136 -28 -36 42 -45 91 -28 163 11 50
12 95 5 218 -10 179 -4 258 24 318 33 71 75 86 120 43z m-3644 -631 l4 75 12
-115 c7 -63 8 -122 4 -130 -7 -12 -9 -11 -11 5 -1 11 -4 -19 -7 -68 -3 -48
-10 -88 -16 -90 -19 -4 -30 230 -22 453 18 537 22 555 27 160 3 -201 7 -331 9
-290z m1720 388 c24 -94 30 -168 37 -435 6 -234 5 -264 -9 -287 -10 -15 -17
-46 -17 -76 0 -41 -5 -56 -25 -75 -28 -29 -38 -31 -59 -9 -14 13 -15 42 -11
212 3 108 10 253 15 322 5 69 12 161 15 205 6 85 25 195 35 195 3 0 11 -24 19
-52z m-7616 -74 c22 -4 37 -12 37 -20 0 -8 8 -14 18 -14 29 -1 61 -64 68 -138
4 -39 13 -75 23 -86 24 -27 21 -161 -4 -215 -11 -22 -25 -41 -31 -41 -5 0 -18
-18 -27 -39 -20 -45 -83 -82 -146 -86 -39 -3 -131 23 -131 36 0 5 -8 9 -17 9
-10 0 -31 20 -48 48 -29 46 -30 50 -30 172 0 115 2 129 27 180 14 31 30 69 34
84 10 40 55 85 101 102 43 15 71 17 126 8z m-7379 -75 c29 -23 34 -39 11 -39
-11 0 -15 -11 -15 -40 0 -22 -4 -40 -10 -40 -6 0 -10 -33 -10 -80 0 -47 -4
-80 -10 -80 -6 0 -10 33 -10 80 l0 80 -29 0 c-16 0 -32 -6 -35 -12 -5 -10 -8
-9 -13 2 -3 8 -19 28 -35 43 -37 38 -35 47 10 47 l37 1 -27 15 c-34 18 -34 22
-5 34 42 17 112 11 141 -11z m14654 -157 c19 -224 11 -451 -15 -459 -10 -4
-12 62 -11 296 1 166 5 301 8 301 4 0 12 -62 18 -138z m-1716 -159 c-2 -273
-9 -364 -23 -342 -7 11 -9 9 -9 -7 0 -21 -17 -44 -33 -44 -6 0 -7 28 -3 70 4
45 2 70 -4 70 -13 0 -13 339 0 394 10 43 28 60 47 44 10 -8 13 -4 13 19 0 23
6 43 14 43 1 0 0 -111 -2 -247z m-3242 206 c0 -5 11 -9 24 -9 21 0 25 -6 31
-51 5 -33 3 -55 -4 -62 -6 -6 -11 -19 -11 -29 0 -13 -8 -18 -30 -18 -29 0 -40
-13 -20 -25 6 -3 11 -18 11 -33 1 -21 2 -22 6 -7 8 31 22 42 33 25 7 -10 10
-11 10 -2 0 6 7 12 15 12 8 0 15 7 15 15 0 8 4 15 9 15 16 0 24 -105 12 -158
-12 -59 -47 -122 -67 -122 -8 0 -19 -9 -26 -20 -7 -11 -16 -20 -20 -20 -6 0
-23 59 -20 72 1 4 -7 10 -18 13 -30 10 -27 62 5 90 20 16 26 32 28 65 l2 45
-50 3 c-29 2 -65 12 -85 25 -19 12 -40 22 -46 22 -22 0 -84 40 -84 53 0 11 -3
12 -14 3 -19 -16 -30 2 -17 27 11 20 80 57 126 67 92 21 185 22 185 4z m7892
-41 c13 -19 18 -21 30 -10 18 14 24 8 54 -53 16 -34 19 -63 19 -190 0 -221
-11 -251 -92 -268 -90 -18 -123 -14 -150 17 -22 26 -24 37 -23 110 1 45 -1
122 -5 171 -7 82 -5 95 14 133 12 24 38 53 60 67 22 13 42 29 46 35 10 17 32
11 47 -12z m-3832 -218 c6 -91 11 -223 11 -294 0 -131 9 -172 35 -162 8 3 14
-1 14 -10 0 -8 20 -29 45 -46 25 -17 47 -40 51 -50 3 -10 15 -18 26 -18 29 0
134 -122 122 -142 -3 -4 16 -17 41 -29 35 -16 49 -19 58 -10 11 11 0 16 -30
12 -7 -1 -13 3 -13 9 0 5 8 10 19 10 24 0 43 23 35 43 -3 8 -1 18 5 22 6 3 11
14 11 23 0 19 -93 62 -133 62 -27 0 -65 38 -45 45 56 20 69 26 64 33 -8 13 33
74 53 79 10 3 29 25 42 49 20 39 26 44 47 39 14 -3 31 0 41 8 23 19 70 38 74
29 2 -4 3 -39 3 -78 -1 -52 -6 -77 -18 -90 -9 -11 -20 -37 -23 -59 -4 -22 -12
-48 -17 -58 -12 -24 -3 -34 16 -18 12 10 17 9 25 -7 6 -11 8 -22 5 -25 -3 -3
5 -11 17 -18 20 -10 25 -9 34 5 33 56 36 53 32 -28 -4 -76 -3 -79 12 -59 10
11 28 24 42 27 32 9 73 29 80 39 9 13 71 -24 65 -39 -3 -8 -2 -14 3 -14 21 0
-7 -171 -32 -196 -4 -4 -7 -26 -7 -48 0 -23 -5 -59 -10 -81 -5 -22 -7 -41 -5
-44 6 -5 65 124 75 164 5 17 18 62 30 100 38 121 52 169 61 215 5 24 14 49 20
55 9 7 10 3 5 -15 -4 -14 -10 -36 -12 -50 -15 -84 -28 -141 -41 -182 -8 -26
-12 -56 -10 -65 3 -13 5 -12 6 5 1 32 19 62 36 62 8 0 15 -9 15 -19 0 -11 5
-23 10 -26 6 -3 10 -14 10 -23 0 -10 12 -26 27 -37 15 -11 36 -29 48 -40 11
-11 24 -19 29 -17 5 2 31 -2 58 -8 37 -9 67 -9 130 1 46 6 119 16 163 20 185
18 274 35 304 56 34 25 81 40 81 25 0 -5 9 -12 19 -15 16 -4 20 -15 23 -53 3
-45 5 -49 30 -52 24 -3 26 -6 18 -30 -5 -15 -11 -43 -14 -62 -10 -57 -62 -139
-101 -157 -19 -9 -35 -21 -35 -26 0 -5 -26 -34 -57 -64 -50 -47 -59 -51 -65
-36 -6 12 -7 9 -3 -9 4 -21 1 -28 -10 -28 -8 0 -15 -4 -15 -10 0 -5 -8 -10
-19 -10 -10 0 -28 -13 -41 -30 -14 -18 -32 -30 -46 -30 -29 0 -32 26 -4 33 13
3 22 17 26 36 4 18 15 36 25 42 11 5 19 18 19 28 0 10 7 24 15 31 22 18 18 33
-7 27 -13 -3 -32 1 -42 8 -22 17 -36 11 -36 -15 0 -10 -10 -26 -22 -35 -22
-15 -24 -14 -45 10 l-22 26 -21 -21 c-11 -11 -27 -20 -35 -20 -9 0 -14 -8 -12
-22 1 -15 -6 -26 -25 -36 -28 -13 -39 -54 -18 -67 10 -6 2 -36 -14 -47 -5 -4
-15 1 -22 10 -22 30 -31 -35 -11 -71 10 -16 17 -34 17 -41 0 -13 31 -18 40 -6
3 3 21 11 40 18 28 9 29 11 6 6 -18 -3 -32 0 -37 7 -6 10 -11 10 -23 0 -13
-11 -16 -11 -16 0 1 31 46 49 114 46 36 -1 66 -3 66 -5 0 -13 -23 -42 -34 -42
-8 0 -17 -11 -20 -25 -4 -14 -10 -25 -14 -25 -18 0 -102 -63 -102 -76 0 -8
-16 -32 -36 -54 -20 -22 -31 -40 -25 -40 6 0 11 -8 10 -17 0 -12 -2 -13 -6 -5
-8 20 -54 -35 -74 -88 -10 -26 -23 -44 -31 -43 -20 4 -41 -34 -29 -54 6 -11 5
-27 -1 -42 -5 -15 -11 -70 -13 -123 -2 -53 -10 -107 -16 -120 -7 -13 -15 -30
-19 -38 -10 -20 -41 -25 -51 -8 -5 7 -9 35 -9 62 0 62 -47 163 -100 214 -42
40 -43 44 -41 115 1 34 7 53 23 69 20 20 22 20 34 3 8 -10 11 -29 9 -42 -3
-12 -7 -34 -10 -48 -4 -17 -1 -23 7 -20 29 11 76 -33 93 -86 16 -48 19 -51 31
-34 21 28 17 41 -16 65 -31 22 -37 48 -20 80 8 15 6 24 -9 39 -10 10 -22 33
-26 50 -4 17 -12 31 -18 31 -6 0 0 11 13 25 13 14 29 25 37 25 7 0 13 8 13 18
0 14 -2 14 -9 3 -8 -13 -12 -13 -26 -1 -13 11 -23 11 -48 3 -108 -38 -298 -31
-387 14 -18 8 -59 17 -92 18 -60 2 -74 9 -112 55 -15 19 -16 27 -7 42 9 15 8
22 -4 34 -17 17 -10 38 10 30 7 -2 16 -2 20 2 3 4 14 7 23 7 12 0 16 7 14 25
-2 14 -8 30 -13 37 -13 15 2 23 29 16 25 -6 26 -7 11 -36 -12 -22 -12 -22 10
-3 13 12 21 31 21 50 0 17 7 40 15 50 14 19 15 18 25 -5 9 -21 10 -20 6 13 -5
41 7 56 29 38 20 -17 26 3 9 35 -20 39 -2 57 25 24 15 -17 20 -20 21 -9 0 9
-6 22 -12 28 -10 10 -10 15 2 22 9 6 18 5 23 -3 6 -8 7 -5 3 6 -4 13 0 20 14
24 23 6 27 23 5 23 -8 0 -15 -4 -15 -9 0 -5 -9 -11 -20 -14 -11 -3 -20 -1 -20
5 0 5 9 12 20 15 10 3 26 16 35 29 21 32 11 30 -28 -6 -17 -16 -46 -37 -64
-47 -17 -9 -36 -27 -42 -40 -6 -13 -17 -23 -25 -23 -24 0 -38 -37 -31 -79 6
-35 4 -39 -19 -45 -13 -3 -31 -4 -39 -1 -7 3 -20 -1 -27 -10 -18 -22 -32 -18
-25 8 6 21 6 21 -9 3 -14 -17 -14 -21 -1 -36 8 -9 15 -19 15 -22 0 -14 -65
-30 -103 -25 -44 5 -104 -20 -99 -42 1 -6 -7 -11 -19 -11 -13 0 -20 -6 -18
-17 4 -30 -13 -55 -44 -68 l-30 -12 32 -16 c26 -13 31 -13 31 -2 0 8 15 18 33
23 23 6 32 14 32 30 0 11 4 24 8 28 4 4 7 2 7 -4 0 -7 3 -11 8 -11 37 6 11
-38 -34 -57 -36 -15 -44 -31 -19 -40 8 -4 13 -10 10 -14 -13 -21 73 34 93 60
27 35 20 53 -24 64 -17 5 -24 12 -20 21 4 10 -1 15 -14 15 -11 0 -20 4 -20 10
0 5 32 8 74 7 59 -2 72 -5 68 -16 -3 -9 -1 -12 6 -7 7 4 12 3 12 -2 0 -13 -27
-23 -45 -16 -8 4 -15 11 -15 17 0 7 -4 6 -12 -2 -11 -10 -9 -14 5 -22 10 -6
23 -23 28 -37 9 -24 11 -25 20 -9 12 21 41 23 33 3 -7 -17 -64 -40 -64 -25 0
5 -5 9 -11 9 -7 0 -9 -10 -6 -26 5 -26 8 -22 -158 -181 -22 -21 -50 -52 -63
-68 l-23 -30 19 35 c11 19 18 40 15 46 -2 6 3 17 12 24 8 7 15 18 15 25 0 6
18 18 41 25 55 18 58 30 9 30 -34 0 -42 -4 -50 -24 -5 -14 -26 -36 -46 -50
-30 -20 -34 -26 -21 -32 23 -9 21 -31 -3 -39 -11 -3 -20 -11 -20 -18 0 -6 -9
-20 -20 -32 -14 -15 -18 -28 -13 -41 6 -17 8 -17 13 5 8 33 25 37 26 6 1 -14
-2 -25 -7 -25 -5 0 -9 -6 -9 -14 0 -8 -5 -18 -12 -22 -6 -4 -8 -3 -4 4 4 7 -1
10 -14 9 -24 -2 -24 -2 -6 -30 13 -20 12 -28 -8 -76 -13 -30 -25 -48 -28 -41
-3 9 -14 7 -46 -9 -22 -11 -48 -21 -57 -21 -14 0 -14 3 1 25 23 36 12 41 -24
10 -30 -25 -69 -35 -57 -14 4 6 13 8 21 5 8 -3 14 1 14 8 0 8 12 23 27 34 16
11 25 24 21 28 -4 4 -14 1 -22 -5 -12 -10 -18 -7 -31 18 -8 17 -20 31 -26 31
-5 0 -14 11 -19 25 -12 31 -42 33 -70 5 -11 -11 -27 -20 -35 -20 -8 0 -19 -10
-26 -21 -9 -17 -13 -19 -19 -8 -5 7 -6 18 -2 24 3 5 5 20 3 33 -1 12 2 22 8
22 6 0 11 -9 11 -20 0 -11 5 -20 10 -20 6 0 9 3 9 8 -6 33 2 40 42 36 22 -2
50 1 61 7 15 8 22 8 27 0 4 -6 11 -3 19 9 8 13 8 21 1 26 -6 4 -2 12 11 21 18
13 24 13 30 3 8 -12 66 -17 77 -7 2 3 -1 14 -7 24 -9 14 -21 18 -46 15 -26 -3
-34 -1 -34 12 0 9 -7 16 -15 16 -8 0 -15 -6 -15 -12 0 -19 -52 -41 -61 -27
-11 18 -31 0 -24 -21 4 -13 -1 -22 -15 -30 -21 -11 -24 -6 -21 32 1 9 -3 19
-9 23 -8 5 -5 11 7 21 10 7 13 14 7 14 -13 0 -49 -39 -58 -64 -6 -19 -7 -19
-24 -2 -13 14 -14 20 -4 23 6 3 10 9 6 14 -3 5 2 9 10 9 9 0 16 5 16 10 0 17
-38 11 -45 -7 -6 -17 -7 -17 -16 0 -13 22 -29 22 -29 0 0 -14 -2 -15 -17 -1
-27 23 -74 32 -85 16 -6 -9 -10 -10 -15 -2 -6 9 -11 8 -20 -1 -16 -17 -1 -22
55 -19 31 2 42 -1 42 -11 0 -9 6 -12 15 -9 8 4 15 1 15 -4 0 -16 -40 -26 -53
-13 -20 20 -68 13 -74 -9 -7 -26 -27 -20 -31 9 -3 19 -8 21 -40 15 -20 -3 -41
-10 -45 -14 -4 -3 3 -25 16 -48 l24 -42 11 25 c10 23 32 35 32 18 0 -19 -44
-95 -48 -82 -2 7 -17 42 -32 76 -23 49 -41 70 -87 104 -32 24 -81 66 -109 94
-28 27 -105 100 -170 160 -167 155 -261 253 -295 305 -17 25 -33 45 -37 45 -4
0 -6 7 -5 15 3 18 -21 62 -62 117 -16 23 -36 49 -43 59 -28 41 -1 -41 29 -85
16 -25 29 -49 29 -55 0 -6 -12 7 -27 29 -14 22 -29 42 -33 45 -19 15 -137 243
-145 281 -4 16 -11 31 -16 34 -5 4 -9 17 -9 29 0 13 -9 44 -21 70 -21 48 -63
241 -73 336 -9 84 9 31 45 -129 28 -126 39 -163 39 -131 0 9 3 10 13 1 8 -6
16 -8 20 -5 3 3 3 -3 0 -15 -4 -15 -1 -21 11 -21 9 0 21 -11 26 -24 13 -34 31
-42 47 -20 13 17 14 17 29 -4 23 -33 33 -27 27 18 -5 32 -2 44 12 54 12 9 16
19 11 31 -9 23 20 55 50 55 13 0 34 -10 48 -23 42 -39 74 -52 103 -41 22 7 30
21 46 74 20 68 31 82 54 73 12 -5 13 18 7 144 -5 102 -3 152 4 157 13 8 19
-26 22 -114 1 -36 6 -69 11 -74 5 -6 9 -17 9 -26 0 -18 38 -100 46 -100 3 0
13 4 23 10 15 8 21 3 36 -30 15 -33 16 -48 8 -91 -9 -45 -8 -53 10 -69 13 -12
18 -26 14 -40 -4 -15 0 -24 16 -30 12 -5 16 -9 10 -9 -25 -2 -12 -25 38 -73
28 -26 48 -51 45 -56 -2 -4 15 -14 39 -21 53 -16 115 -7 144 20 20 18 59 38
91 46 8 2 60 4 115 4 55 1 123 4 150 8 43 5 50 9 47 26 -2 11 -11 26 -20 33
-9 7 -17 21 -18 30 0 9 -21 61 -47 114 -67 137 -154 483 -131 520 10 17 24 -4
24 -36 0 -59 40 -143 62 -130 5 3 15 1 22 -5 19 -16 32 4 40 62 4 26 11 47 16
47 5 0 19 18 30 40 11 22 25 40 30 40 6 0 10 17 10 38 0 27 3 33 10 22 5 -8
10 -32 10 -52 0 -36 12 -49 25 -28 23 38 45 -35 47 -157 2 -100 5 -114 22 -81
17 34 42 34 60 0 22 -42 99 -59 110 -24 3 9 10 98 16 197 14 245 20 296 37
314 11 11 14 27 9 60 -4 30 -3 42 4 35 5 -5 14 -84 20 -174z m-1690 -162 c0
26 29 10 36 -20 3 -18 12 -42 19 -53 23 -36 28 -110 10 -129 -19 -18 -31 -20
-40 -6 -9 15 -25 12 -25 -5 0 -28 -21 -15 -37 22 -11 27 -14 60 -11 118 5 95
15 119 34 84 7 -13 13 -18 14 -11z m2715 -355 c25 -24 53 0 57 49 3 47 27 70
55 52 26 -16 28 -100 3 -122 -11 -9 -20 -24 -20 -33 0 -9 -7 -22 -15 -29 -8
-7 -15 -18 -15 -25 0 -8 -13 -24 -30 -37 -16 -13 -49 -48 -72 -78 -23 -30 -38
-46 -34 -35 20 54 53 241 44 246 -6 4 -7 34 -1 85 l8 79 3 -69 c2 -42 8 -74
17 -83z m1068 113 c9 -7 17 -22 17 -32 0 -10 11 -32 25 -48 l24 -28 -24 -47
c-14 -25 -25 -53 -25 -61 0 -9 -8 -27 -17 -40 -10 -14 -18 -43 -20 -65 -1 -22
-2 -45 -2 -50 -1 -6 -10 -11 -21 -11 -15 0 -18 5 -14 19 3 10 -1 26 -9 35 -17
21 -20 89 -5 120 10 18 9 28 -5 51 -9 16 -17 36 -17 44 0 9 -6 18 -12 21 -10
5 -10 7 -1 12 9 4 9 10 1 23 -8 14 -7 24 7 44 19 30 67 36 98 13z m1867 -397
c0 -4 7 -6 16 -2 19 7 34 -13 34 -44 0 -14 -6 -23 -15 -23 -8 0 -15 -4 -15
-10 0 -5 -9 -10 -20 -10 -11 0 -20 -6 -20 -14 0 -27 -41 -66 -69 -66 -41 0
-91 28 -102 57 -6 16 -15 23 -24 19 -22 -8 -113 22 -136 45 -20 20 -20 22 -3
40 14 15 31 19 91 19 40 0 73 -4 73 -10 0 -5 23 2 51 15 48 22 53 22 95 8 24
-8 44 -19 44 -24z m-9588 -924 c6 -14 17 -25 25 -25 9 0 13 -13 13 -40 0 -27
-4 -40 -14 -40 -7 0 -27 -7 -42 -15 -16 -8 -41 -15 -56 -15 -24 0 -28 4 -28
29 0 16 7 34 15 41 9 7 15 20 14 29 -3 36 1 50 15 45 8 -3 17 -1 21 5 10 18
25 12 37 -14z m6153 -284 c43 -54 53 -62 77 -59 41 6 62 -21 55 -69 -6 -33 -3
-39 18 -49 20 -10 25 -9 30 5 2 9 4 20 4 24 0 4 6 19 15 31 12 20 13 30 3 55
-10 26 -9 34 6 48 11 11 17 13 17 5 0 -7 7 -12 16 -12 12 0 15 -6 9 -22 -3
-13 -11 -43 -17 -68 -6 -25 -16 -48 -22 -52 -8 -6 -7 -10 2 -17 19 -12 34 -88
27 -132 -6 -34 -4 -37 24 -47 24 -8 28 -15 24 -32 -3 -12 -12 -24 -19 -27 -9
-3 -14 -21 -14 -46 0 -38 1 -39 18 -24 38 34 42 8 42 -269 0 -144 -3 -269 -6
-277 -5 -13 -8 -13 -25 4 -17 17 -19 34 -19 157 0 172 -11 357 -20 342 -4 -7
-13 -1 -25 16 -16 25 -16 32 -3 93 14 65 14 67 -12 117 -26 51 -27 52 -49 35
-21 -16 -22 -22 -16 -77 4 -32 14 -71 21 -86 19 -37 17 -65 -7 -117 -17 -38
-18 -52 -10 -93 14 -63 24 -373 15 -465 -8 -87 -24 -97 -24 -15 0 41 -6 64
-20 82 -11 14 -20 32 -20 40 0 8 -7 24 -15 34 -8 10 -12 23 -9 27 6 11 -43
151 -57 160 -6 3 -15 28 -20 54 -19 102 -28 123 -64 145 -19 12 -35 26 -35 31
0 5 -6 9 -14 9 -18 0 -119 52 -137 70 -8 9 -22 32 -33 52 -23 45 -18 98 23
245 11 40 68 124 131 192 17 18 38 44 47 58 15 23 16 23 27 5 6 -11 33 -47 61
-81z m515 -402 c0 -40 -10 -59 -35 -69 -18 -7 -22 -17 -24 -61 -2 -56 -7 -72
-20 -64 -5 2 -13 -7 -19 -20 -7 -14 -18 -25 -27 -25 -17 0 -21 35 -5 45 6 3
10 16 10 29 0 30 29 88 41 81 5 -4 9 19 9 52 0 61 6 77 30 85 20 7 40 -19 40
-53z m42 -166 c9 -38 14 -83 11 -100 -3 -19 -1 -33 5 -33 13 0 29 -45 37 -105
3 -27 15 -68 25 -90 10 -22 29 -65 43 -95 14 -31 29 -68 32 -83 4 -15 11 -27
16 -27 5 0 9 -7 9 -15 0 -9 11 -32 24 -53 14 -20 28 -49 31 -64 4 -16 11 -28
16 -28 5 0 9 -8 9 -19 0 -10 6 -24 14 -30 8 -7 17 -34 21 -62 6 -39 11 -49 26
-49 15 0 19 -7 19 -34 0 -26 9 -43 40 -75 l40 -41 -23 -26 c-22 -24 -28 -25
-81 -19 -38 5 -56 12 -56 21 0 11 -17 14 -70 14 -76 0 -103 11 -152 62 -16 16
-32 27 -37 24 -5 -3 -14 1 -21 9 -7 8 -19 15 -26 15 -8 0 -15 10 -15 23 -3 52
-18 -75 -18 -159 -1 -109 -11 -214 -21 -214 -14 0 -29 145 -19 195 5 28 12
167 15 310 3 143 8 285 10 315 3 30 7 89 9 130 11 207 22 296 41 332 10 21 22
38 25 38 3 0 12 -30 21 -67z"/>
<path d="M14722 6991 c-10 -6 -10 -10 3 -21 8 -7 15 -20 15 -29 1 -9 8 -25 18
-36 18 -22 113 -65 143 -65 10 0 21 -4 24 -10 7 -12 52 -13 59 -2 2 4 2 12 -2
18 -8 11 -110 74 -121 74 -4 0 -25 18 -46 40 -38 39 -66 48 -93 31z"/>
<path d="M14009 6445 c-1 -3 -3 -9 -4 -15 -1 -5 -3 -13 -4 -17 -1 -5 -8 1 -16
11 -13 17 -15 18 -15 3 0 -9 -7 -17 -15 -17 -8 0 -15 -4 -15 -10 0 -5 -7 -10
-16 -10 -10 0 -14 6 -10 15 6 17 -5 20 -20 5 -12 -12 52 -90 74 -90 17 0 15
10 -5 32 -17 19 -16 19 12 13 27 -6 28 -5 13 8 -32 26 -19 28 30 3 58 -29 99
-39 107 -26 3 5 -3 10 -13 10 -11 0 -25 6 -31 14 -10 12 -8 14 13 12 14 -2 32
-8 39 -14 9 -8 24 -8 50 -1 21 5 41 8 45 5 4 -2 14 -1 22 5 12 7 9 9 -10 11
-14 1 -34 2 -45 3 -23 2 -42 8 -103 36 -40 18 -81 25 -83 14z"/>
<path d="M14194 6339 c-3 -6 -17 -9 -31 -6 -26 5 -83 -18 -83 -34 0 -5 -6 -9
-14 -9 -22 0 -25 -22 -9 -54 l15 -29 16 26 c9 15 22 27 29 27 7 0 12 5 11 12
-2 6 5 14 15 16 14 3 17 -1 12 -20 -3 -13 -2 -28 2 -34 11 -16 113 -29 113
-15 0 14 53 14 67 0 7 -7 27 -6 67 6 57 17 74 29 34 24 -13 -2 -29 0 -35 4 -9
6 -11 3 -6 -9 5 -14 2 -16 -18 -11 -13 4 -35 7 -48 7 l-25 0 23 21 c13 12 30
19 41 16 11 -3 21 1 25 10 6 16 -7 16 -100 -2 l-30 -6 24 20 c13 12 32 21 44
21 11 0 18 3 14 6 -10 10 -64 -6 -86 -27 -11 -11 -21 -31 -21 -44 0 -37 -15
-30 -39 15 l-21 40 25 12 c13 6 22 15 19 19 -7 12 -21 11 -30 -2z"/>
<path d="M14390 6331 c0 -9 13 -37 28 -61 2 -2 7 2 12 9 5 9 28 15 63 15 52 1
54 0 41 -19 -17 -24 -18 -39 -2 -28 7 4 24 6 38 5 14 -2 37 1 50 7 14 5 19 10
13 10 -7 1 -13 11 -13 23 0 20 1 21 16 6 26 -25 194 -11 194 17 0 12 -15 15
-73 15 -45 0 -78 -5 -86 -12 -11 -10 -14 -10 -18 0 -6 14 -83 17 -83 2 0 -5
-5 -10 -11 -10 -5 0 -7 5 -4 10 4 6 -7 10 -27 10 -18 0 -57 3 -85 6 -37 5 -53
3 -53 -5z"/>
<path d="M12875 5434 c-5 -1 -29 -8 -53 -14 -59 -15 -102 -59 -102 -105 0 -19
-4 -35 -10 -35 -14 0 -12 -118 3 -161 16 -46 64 -107 91 -115 12 -3 30 -14 41
-24 11 -10 31 -20 45 -23 14 -3 43 -10 65 -16 63 -17 190 -14 205 4 7 8 21 15
31 15 11 0 38 18 60 40 23 22 48 40 56 40 16 0 70 56 79 82 5 18 -70 128 -87
128 -5 0 -9 6 -9 13 0 15 -98 122 -106 115 -7 -8 -54 40 -54 55 0 7 -4 6 -10
-3 -6 -10 -10 -11 -10 -3 0 10 -29 13 -112 12 -62 -1 -117 -3 -123 -5z"/>
<path d="M13200 4730 c0 -5 -18 -10 -40 -10 -29 0 -40 -4 -40 -15 0 -11 -11
-15 -36 -15 -35 0 -64 -18 -64 -39 0 -6 -13 -11 -30 -11 -19 0 -30 -5 -30 -14
0 -9 -15 -17 -40 -21 -31 -5 -40 -11 -40 -26 0 -11 -4 -17 -10 -14 -5 3 -10
-1 -10 -9 0 -9 3 -16 8 -16 4 0 13 -13 20 -29 12 -27 33 -40 73 -46 17 -2 69
-34 84 -51 13 -15 55 -21 230 -35 77 -5 156 -15 175 -20 56 -16 110 -43 110
-55 0 -15 34 -44 51 -44 9 0 25 -22 37 -51 26 -59 95 -129 128 -129 13 0 25
-4 28 -9 11 -17 131 -23 168 -8 18 8 48 12 65 10 21 -4 38 0 48 11 9 8 32 18
53 21 78 13 79 23 2 44 -25 7 -53 17 -62 22 -10 5 -26 9 -36 9 -10 0 -26 14
-35 30 -10 17 -24 30 -32 30 -9 0 -16 17 -21 45 -3 26 -13 52 -20 60 -8 7 -14
19 -14 26 0 7 -2 10 -5 7 -6 -6 -93 79 -129 127 -14 18 -28 44 -32 59 -9 37
-19 41 -104 43 -41 0 -128 4 -192 8 -106 6 -118 9 -124 27 -5 16 -8 18 -15 7
-7 -11 -11 -10 -23 6 -9 11 -16 30 -16 43 0 18 -6 22 -30 22 -16 0 -30 5 -30
10 0 6 -4 10 -10 10 -5 0 -10 -4 -10 -10z"/>
<path d="M6010 4479 c-14 -18 -32 -26 -68 -28 -7 -1 -16 -9 -19 -18 -9 -26
-23 -33 -63 -33 -20 0 -40 -4 -45 -9 -6 -5 -36 -18 -67 -29 -31 -11 -69 -32
-83 -46 -14 -14 -42 -33 -60 -41 -37 -15 -85 -57 -85 -75 0 -5 -4 -10 -10 -10
-5 0 -10 -7 -10 -15 0 -10 -10 -15 -30 -15 -24 0 -30 -4 -30 -21 0 -11 -4 -18
-9 -15 -5 3 -23 3 -40 0 -21 -5 -31 -12 -31 -25 0 -14 -7 -19 -28 -19 -32 0
-52 -16 -52 -42 0 -14 -8 -18 -40 -18 -33 0 -40 -3 -40 -20 0 -17 7 -20 40
-20 22 0 40 -4 40 -10 0 -13 83 -13 96 0 6 6 46 5 109 -1 92 -10 104 -9 153
10 32 13 75 21 112 21 68 0 90 -6 90 -27 0 -12 14 -14 83 -9 45 2 99 7 119 9
27 4 41 0 54 -14 9 -10 21 -16 27 -12 6 3 7 1 3 -5 -4 -7 -1 -12 10 -12 13 0
14 -3 4 -15 -7 -8 -8 -15 -2 -15 14 0 30 46 40 118 8 60 4 76 -20 77 -9 0 -44
24 -74 50 -53 49 -81 216 -49 305 18 51 18 50 3 50 -7 -1 -20 -10 -28 -21z"/>
<path d="M4000 4261 c0 -5 -23 -11 -50 -13 -28 -3 -53 -8 -56 -11 -3 -3 -7
-23 -7 -45 -1 -22 -4 -40 -7 -39 -3 1 -17 -7 -32 -17 -26 -17 -39 -56 -20 -56
5 0 18 -18 31 -40 14 -25 29 -40 42 -40 12 0 19 -7 19 -19 0 -11 4 -22 9 -25
5 -3 13 -25 19 -49 10 -38 52 -96 52 -71 0 5 28 10 63 10 80 2 149 10 190 23
17 6 48 10 67 10 88 -1 223 35 241 64 4 5 77 12 163 15 86 3 156 9 156 13 0 5
16 9 36 9 43 0 64 19 64 58 0 34 -23 57 -68 67 -18 4 -30 11 -26 16 3 5 2 9
-3 7 -14 -3 -78 14 -84 23 -3 5 -28 10 -55 11 -27 1 -56 7 -64 13 -8 7 -55 16
-105 19 -49 4 -92 12 -96 17 -3 5 -29 9 -57 8 -28 -1 -57 2 -64 8 -7 6 -26 9
-43 6 -23 -3 -26 -1 -15 7 11 7 -5 9 -54 8 -47 -2 -71 1 -74 10 -4 14 -172 17
-172 3z"/>
<path d="M10560 2471 c0 -4 -29 -11 -64 -15 -66 -7 -130 -27 -141 -46 -3 -5
-17 -10 -30 -10 -22 0 -59 -17 -125 -59 -14 -8 -32 -16 -40 -18 -8 -1 -41 -17
-74 -35 -111 -63 -240 -128 -252 -128 -7 0 -14 -3 -16 -7 -1 -5 -30 -21 -63
-36 -33 -16 -67 -32 -75 -37 -132 -80 -200 -100 -200 -59 0 27 12 49 49 88 17
18 29 37 26 42 -3 4 -29 -2 -58 -15 -29 -13 -70 -26 -92 -30 -22 -4 -43 -13
-47 -19 -4 -7 -48 -11 -125 -10 -103 1 -269 -17 -293 -32 -4 -2 -50 -11 -101
-19 -430 -69 -701 -114 -706 -119 -10 -10 187 -28 312 -28 250 0 602 19 633
35 36 19 195 33 517 46 375 16 925 52 1005 66 50 9 73 23 38 24 -15 0 -30 5
-33 10 -3 6 -16 10 -28 10 -13 0 -17 3 -11 8 6 4 14 31 16 61 4 43 11 60 32
77 14 13 26 31 26 42 0 10 4 22 9 28 4 5 13 36 20 69 11 56 10 61 -9 77 -11 9
-20 23 -20 32 0 12 -10 16 -40 16 -22 0 -40 -4 -40 -9z"/>
<path d="M7320 2440 c-134 -28 -298 -69 -380 -93 -71 -21 -73 -22 -40 -27 19
-3 51 -2 70 2 19 5 53 11 74 14 22 3 48 10 58 15 10 5 18 7 18 3 0 -3 6 -2 13
4 14 12 45 12 147 1 41 -4 113 -11 160 -14 47 -4 108 -13 137 -20 29 -8 132
-18 230 -24 265 -16 280 -17 388 -34 86 -14 120 -15 104 -4 -4 3 -129 40 -209
62 -443 123 -499 135 -607 134 -43 0 -116 -9 -163 -19z"/>
<path d="M5026 2263 c-2 -3 31 -38 74 -80 44 -41 85 -88 92 -104 9 -20 20 -29
36 -29 13 0 29 -6 37 -13 25 -26 515 -62 515 -39 0 7 -5 12 -11 12 -18 0 -137
120 -143 144 -8 34 -124 66 -236 66 -76 0 -200 15 -317 39 -23 4 -44 6 -47 4z"/>
<path d="M12839 2180 c-14 -4 -46 -19 -70 -33 -24 -14 -91 -39 -148 -56 -121
-36 -455 -104 -591 -121 -113 -13 -214 -27 -495 -68 -285 -41 -664 -75 -1320
-117 -756 -48 -2398 -75 -3410 -56 -1068 20 -1590 50 -2214 128 -232 28 -295
33 -301 23 -9 -14 -34 -16 -115 -5 -46 5 -56 4 -52 -7 2 -7 10 -12 17 -10 7 1
19 -3 27 -10 9 -7 34 -19 57 -25 39 -12 38 -12 -27 -7 -78 7 -149 25 -153 39
-2 6 14 21 36 35 48 29 39 50 -12 30 -37 -16 -48 -28 -41 -46 2 -6 0 -15 -6
-19 -6 -3 -11 -1 -11 5 0 6 -5 8 -10 5 -17 -11 -120 49 -120 69 0 3 21 6 48 6
70 0 38 14 -118 50 -74 18 -165 45 -203 61 -37 16 -78 29 -91 29 -50 0 -75
-70 -37 -104 14 -13 33 -17 72 -14 38 2 53 -1 57 -11 3 -8 0 -11 -7 -7 -7 5
-9 1 -5 -9 9 -23 57 -45 98 -45 20 0 52 -7 73 -16 68 -30 77 -33 163 -53 299
-71 1001 -142 1795 -181 617 -30 1846 -53 2295 -43 230 5 290 3 368 -11 83
-14 134 -15 480 -5 295 8 392 14 409 25 16 10 99 16 325 23 166 6 348 13 403
16 55 3 228 12 385 20 157 8 341 19 410 25 69 6 211 17 315 25 105 9 278 25
385 37 114 13 265 22 365 23 94 1 183 5 199 10 26 7 28 9 12 21 -16 11 -16 13
1 17 10 3 36 8 58 12 53 8 411 83 455 95 128 34 181 55 210 81 22 21 38 27 54
23 27 -6 71 28 81 63 5 17 -2 31 -28 58 -19 19 -36 35 -38 34 -2 0 -16 -4 -30
-9z"/>
<path d="M11570 2129 c-58 -11 -143 -25 -190 -33 -72 -12 -78 -14 -38 -15 69
-2 318 -30 359 -41 38 -11 233 9 260 26 36 22 -67 64 -157 64 -29 0 -56 5 -59
10 -9 14 -54 11 -175 -11z"/>
<path d="M12480 1689 c-60 -12 -475 -63 -675 -84 -88 -8 -198 -20 -245 -25
-437 -50 -1204 -97 -2110 -130 -1237 -45 -1454 -50 -2132 -53 -285 -1 -518 -5
-518 -8 0 -6 299 -25 331 -20 9 1 19 -5 22 -13 7 -17 89 -36 156 -36 39 0 50
-4 53 -18 5 -16 15 -18 82 -17 42 1 71 -2 64 -6 -6 -4 -16 -5 -20 -3 -4 3 -8
1 -8 -5 0 -11 30 -18 124 -27 53 -5 70 -11 73 -24 4 -13 26 -19 116 -29 115
-13 210 -45 202 -68 -2 -7 2 -10 11 -6 8 3 20 0 28 -6 7 -6 26 -13 42 -15 83
-11 164 -29 164 -37 0 -5 9 -9 20 -9 11 0 20 -3 20 -7 1 -18 30 -44 41 -38 8
6 5 13 -12 26 -13 10 -17 17 -9 15 8 -2 34 -7 57 -11 24 -4 48 -14 55 -22 10
-12 7 -13 -18 -8 -16 4 -35 9 -43 11 -11 4 -12 2 -1 -11 10 -12 9 -15 -6 -15
-11 0 -29 -3 -41 -6 -18 -5 -23 -2 -23 11 0 14 -6 16 -30 12 -17 -4 -30 -2
-30 3 0 6 -4 10 -10 10 -5 0 -7 -7 -3 -16 5 -14 1 -16 -20 -12 -30 6 -33 0
-14 -26 12 -16 14 -16 26 -2 18 22 27 20 58 -8 29 -27 26 -56 -7 -56 -17 0
-20 -4 -15 -20 5 -14 2 -20 -9 -20 -9 0 -16 7 -16 16 0 9 -6 14 -12 11 -7 -2
-12 -11 -10 -20 1 -9 -6 -21 -17 -27 -19 -10 -20 -8 -15 19 6 30 -10 52 -20
26 -7 -20 -40 -19 -71 1 -14 9 -25 12 -25 8 1 -16 27 -44 41 -45 8 0 3 -5 -10
-10 -16 -6 -36 -6 -59 2 -27 9 -40 8 -59 -2 -20 -11 -26 -11 -33 1 -7 11 -17
12 -59 2 -27 -6 -78 -9 -113 -6 -35 2 -83 6 -108 8 -60 5 -713 -21 -765 -30
-22 -4 -69 -8 -105 -10 -79 -2 -76 -2 -63 -15 15 -15 959 -15 1033 0 30 6 67
9 82 6 15 -4 35 -2 45 3 10 5 51 6 93 2 41 -4 77 -5 80 -1 8 9 102 11 114 2
34 -26 165 -21 194 8 14 15 14 16 -1 19 -18 4 -57 70 -57 95 0 10 17 17 50 21
27 4 52 11 55 17 5 7 12 6 21 -2 16 -13 131 -4 151 13 7 6 19 8 27 5 18 -7 5
-76 -18 -92 -14 -11 -118 -5 -189 11 -27 6 -28 5 -17 -15 6 -12 8 -26 4 -33
-5 -8 7 -9 44 -4 36 5 52 3 56 -6 5 -10 7 -10 12 0 7 15 36 16 51 1 7 -7 28
-7 72 2 60 11 62 11 84 -13 20 -22 35 -26 118 -33 51 -4 116 -7 142 -6 33 1
53 -3 65 -15 16 -16 12 -17 -61 -10 -52 5 -77 3 -77 -4 0 -15 13 -18 120 -24
65 -3 90 -2 78 5 -10 6 -18 14 -18 19 0 17 29 11 78 -15 l47 -25 -33 0 c-18 0
-31 -4 -28 -9 9 -14 -175 -25 -291 -18 -95 6 -192 24 -203 38 -13 15 -73 29
-86 18 -7 -5 -44 -11 -81 -12 -51 -2 -74 -7 -87 -19 -10 -10 -28 -21 -40 -24
-23 -5 -139 8 -166 20 -22 9 -59 -19 -44 -34 13 -13 149 -16 252 -5 62 7 75 5
92 -10 11 -10 20 -24 20 -32 0 -8 12 -13 35 -13 23 0 35 -5 35 -14 0 -7 7 -20
16 -27 13 -11 17 -10 25 4 13 22 31 22 27 -1 -2 -11 10 -27 34 -44 l38 -28 82
21 c65 16 139 22 348 29 146 6 290 14 321 20 30 5 76 10 102 10 35 0 47 4 47
15 0 8 4 15 10 15 5 0 7 -6 4 -14 -4 -11 8 -16 51 -21 48 -6 61 -4 83 12 15
11 50 25 77 32 28 8 93 38 145 68 128 73 229 124 273 137 9 3 17 14 17 24 0
13 11 24 33 32 17 6 44 18 59 26 14 8 30 14 36 14 9 0 135 67 225 121 26 16
59 30 75 31 23 3 27 0 25 -22 -1 -14 1 -19 3 -12 10 23 104 5 104 -20 0 -37
-68 -74 -93 -49 -18 18 -47 -6 -47 -39 0 -24 -8 -34 -47 -57 -27 -15 -74 -46
-105 -70 -31 -24 -60 -43 -63 -43 -4 0 -21 -11 -39 -25 -17 -14 -35 -29 -41
-33 -5 -4 -28 -21 -51 -39 -22 -17 -52 -37 -67 -44 -40 -18 -33 -26 26 -31
130 -14 1981 49 2147 72 36 5 135 12 220 15 85 4 166 8 179 11 22 5 23 6 5 19
-18 13 -17 14 9 20 15 4 26 12 24 19 -5 14 -196 9 -215 -7 -7 -5 -43 -9 -80
-8 -74 2 -271 11 -342 15 -70 4 -170 26 -196 42 -34 23 -384 50 -774 60 -129
3 -262 9 -295 14 l-60 7 70 3 c39 1 82 1 97 0 14 -1 29 4 33 10 5 7 21 9 46 5
29 -5 39 -3 39 7 0 17 146 48 254 53 44 2 86 7 95 11 18 8 81 19 196 34 44 6
133 20 197 31 64 12 122 19 130 16 7 -2 20 -1 28 3 20 11 84 21 150 25 75 4
152 13 300 36 69 11 136 19 150 18 14 -1 38 3 53 10 38 15 47 14 47 -5 0 -14
3 -14 15 -4 14 11 13 14 -2 25 -16 12 -14 15 20 29 21 8 52 26 70 38 27 20 42
22 112 20 45 -1 105 -6 135 -11 30 -5 56 -8 58 -6 10 9 -34 35 -59 35 -16 0
-29 4 -29 10 0 5 -18 13 -40 16 -24 4 -40 12 -40 20 0 11 16 13 70 12 44 -2
74 2 82 10 18 18 88 16 88 -3 0 -9 10 -15 26 -15 14 0 34 -4 44 -10 14 -8 21
-4 35 16 20 31 15 40 -14 24 -16 -8 -27 -8 -43 1 -19 10 -19 12 -5 21 25 13
22 20 -33 77 -50 52 -62 60 -57 39 3 -18 -192 -15 -204 3 -14 23 -10 35 14 47
22 11 22 11 -4 11 -14 1 -74 17 -132 36 -58 19 -115 35 -126 35 -11 0 -22 4
-26 9 -3 5 -31 17 -63 25 -104 29 -132 39 -132 48 0 10 -19 9 -80 -3z"/>
<path d="M15430 1638 c-30 -11 -59 -23 -65 -27 -5 -5 -81 -26 -168 -47 -155
-38 -157 -39 -138 -58 11 -11 32 -19 50 -18 26 1 30 -3 33 -31 2 -23 9 -33 27
-37 13 -3 27 -14 31 -24 4 -13 17 -19 43 -21 44 -2 67 9 50 26 -6 6 -9 19 -6
28 4 12 3 13 -5 2 -7 -10 -11 -10 -17 -1 -4 7 -27 21 -51 31 -33 15 -42 24
-37 37 17 47 48 56 63 17 5 -14 17 -28 25 -31 8 -4 15 -12 15 -19 0 -12 40
-29 48 -20 3 3 -7 19 -20 38 -24 30 -25 35 -12 60 19 35 43 36 41 1 -1 -15 4
-29 13 -34 8 -4 42 -20 75 -37 40 -20 67 -28 80 -23 17 6 15 10 -22 29 -23 11
-49 21 -57 21 -26 0 -30 22 -6 40 18 13 21 23 16 43 -5 20 -1 29 15 41 12 8
28 12 35 9 8 -3 14 1 14 11 0 19 1 19 -70 -6z"/>
<path d="M15613 1649 c-30 -11 -29 -27 2 -39 37 -14 125 -13 125 2 0 21 19 4
25 -22 6 -26 11 -30 40 -30 25 0 39 -7 55 -27 12 -16 33 -28 48 -29 15 -1 31
-3 36 -3 4 -1 6 -8 3 -15 -4 -10 -1 -13 9 -9 8 3 21 0 29 -7 18 -15 35 -5 35
21 0 44 82 82 96 44 4 -8 14 -15 23 -15 15 1 61 33 61 43 0 7 -62 20 -87 18
-11 -1 -24 3 -28 8 -10 17 -21 13 -33 -14 -6 -14 -18 -25 -27 -25 -8 0 -15 -8
-15 -19 0 -25 -23 -43 -44 -35 -23 9 -16 47 10 58 11 5 25 19 30 30 5 11 20
23 33 26 48 11 31 25 -31 27 -85 2 -306 13 -343 17 -16 2 -40 0 -52 -5z"/>
<path d="M1840 1641 c0 -5 -8 -12 -17 -15 -53 -20 -63 -31 -63 -68 0 -25 -5
-38 -13 -38 -8 0 -19 -11 -25 -25 -7 -14 -19 -28 -27 -31 -8 -4 -15 -18 -15
-34 0 -15 -18 -60 -40 -100 -22 -40 -40 -81 -40 -90 0 -10 -7 -23 -14 -30 -14
-11 -35 -62 -40 -96 -1 -8 -8 -20 -14 -26 -7 -7 -12 -24 -12 -39 0 -15 -4 -30
-9 -34 -5 -3 -19 -34 -31 -70 -12 -36 -26 -65 -31 -65 -5 0 -8 -3 -7 -7 3 -14
-14 -85 -33 -137 -11 -28 -19 -61 -19 -73 0 -14 -6 -23 -15 -23 -11 0 -15 -11
-15 -40 0 -22 -4 -40 -9 -40 -12 0 -61 -144 -68 -197 -3 -24 -9 -43 -13 -43
-5 0 -18 -29 -30 -65 -12 -36 -26 -67 -31 -70 -5 -4 -9 -14 -9 -24 0 -10 -6
-24 -14 -30 -8 -7 -18 -27 -22 -44 -3 -18 -13 -44 -20 -59 l-15 -28 657 0 657
0 -7 185 c-4 112 -16 246 -30 342 -14 87 -36 262 -51 388 -31 283 -45 377 -55
390 -4 6 -14 46 -21 90 -13 86 -39 137 -39 77 0 -18 -4 -32 -10 -32 -5 0 -10
18 -10 40 0 38 -2 40 -29 40 -16 0 -32 -6 -35 -12 -5 -10 -7 -10 -12 0 -4 8
-29 12 -75 12 l-69 0 0 30 0 30 -80 0 c-47 0 -80 4 -80 10 0 6 11 10 25 10 30
0 32 11 7 33 -21 19 -32 22 -32 8z"/>
<path d="M4160 1535 c0 -12 -21 -20 -51 -17 -3 0 -10 -8 -17 -19 -10 -15 -10
-19 0 -19 7 0 -2 -9 -20 -20 -18 -11 -41 -20 -52 -20 -16 0 -20 -7 -20 -30 0
-16 5 -30 10 -30 21 0 9 -20 -12 -21 -13 0 -17 -3 -10 -6 6 -2 12 -20 12 -39
0 -33 -1 -34 -40 -34 -40 0 -40 0 -40 -39 0 -40 0 -40 -42 -44 l-43 -4 43 -1
c23 -1 42 -6 42 -12 0 -5 18 -10 40 -10 30 0 40 4 40 16 0 13 5 11 19 -8 16
-20 29 -24 80 -26 59 -2 61 -2 61 23 0 19 -5 25 -21 25 -14 0 -19 5 -17 18 3
13 13 17 43 16 74 -3 165 -17 165 -25 0 -5 16 -9 35 -9 19 0 35 -4 35 -9 0 -5
18 -11 40 -13 38 -3 40 -2 40 24 0 26 3 28 40 28 29 0 40 -4 40 -15 0 -8 6
-15 14 -15 7 0 19 7 26 15 7 8 18 15 26 15 7 0 43 29 79 65 36 36 72 65 80 65
11 0 15 12 16 43 1 23 1 46 0 51 -1 4 61 7 138 4 77 -2 137 -1 133 3 -7 6
-325 38 -637 64 -99 8 -201 17 -227 20 -39 5 -48 3 -48 -10z"/>
<path d="M15704 1409 c-11 -18 17 -29 73 -29 28 0 64 -5 80 -11 38 -15 182
-14 230 1 21 7 44 15 52 17 9 2 11 7 5 12 -15 14 -431 23 -440 10z"/>
<path d="M14191 1350 c-30 -17 -62 -30 -71 -30 -9 0 -20 -4 -25 -8 -13 -11
-62 -25 -215 -59 -69 -16 -125 -33 -125 -39 0 -6 -13 -23 -30 -37 -16 -15 -24
-27 -17 -27 6 0 12 4 12 9 0 5 8 11 18 13 15 4 18 0 15 -26 -3 -26 -2 -28 7
-13 6 9 20 17 30 17 11 0 20 5 20 10 0 6 -9 10 -21 10 -11 0 -17 5 -14 10 3 6
17 7 31 4 17 -4 26 -1 30 10 3 9 11 16 16 16 6 0 5 -7 -2 -15 -10 -13 -9 -19
6 -38 31 -37 88 -86 102 -87 17 0 15 -11 -5 -26 -17 -11 -16 -13 11 -24 20 -7
32 -8 40 0 7 7 6 10 -2 10 -7 0 -12 6 -12 13 -1 20 -57 80 -69 73 -6 -4 -11 1
-11 11 0 11 -5 24 -11 30 -9 9 -8 18 5 37 16 26 46 36 46 16 0 -13 32 -45 59
-59 34 -19 43 -12 22 15 -12 15 -21 34 -21 44 0 15 29 50 42 50 8 0 20 -42 19
-62 -2 -19 15 -33 24 -18 3 5 1 10 -5 10 -7 0 -8 6 -1 19 6 10 8 21 5 23 -3 3
16 11 41 17 25 6 45 14 45 17 0 4 -9 4 -20 1 -28 -7 -33 7 -10 28 14 13 28 16
57 11 l38 -6 -23 19 -22 19 27 21 c39 29 27 26 -36 -9z"/>
<path d="M14295 1330 c-11 -13 -15 -24 -9 -29 15 -15 81 -24 88 -12 4 7 16 6
37 -1 16 -5 41 -8 54 -5 15 2 30 -2 37 -10 10 -13 5 -14 -33 -11 -24 1 -47 7
-51 13 -5 6 -11 6 -19 -2 -9 -9 -2 -14 27 -22 22 -6 44 -11 49 -11 6 0 32 -11
59 -25 27 -14 43 -25 36 -25 -12 0 -11 -3 1 -15 16 -16 139 -27 139 -13 0 4
-4 8 -10 8 -5 0 -10 7 -10 16 0 10 6 14 18 10 12 -3 27 8 50 39 17 24 32 49
32 55 0 5 6 10 14 10 17 0 29 -27 16 -35 -5 -3 -7 -12 -3 -20 3 -8 0 -15 -5
-15 -6 0 -12 8 -14 17 -2 14 -7 12 -21 -10 -23 -36 -13 -51 30 -44 30 5 33 4
28 -13 -5 -15 -3 -18 9 -14 9 3 16 10 16 15 0 5 5 9 11 9 6 0 24 10 39 23 15
12 36 27 46 34 17 10 16 12 -16 26 -19 8 -51 13 -70 11 l-35 -4 38 15 c33 12
44 12 78 1 22 -8 42 -10 45 -5 7 13 44 11 44 -1 0 -6 -6 -10 -12 -9 -28 3 -38
-2 -38 -20 0 -21 22 -19 70 6 14 7 35 13 47 13 24 0 61 54 44 65 -5 3 -12 1
-16 -5 -3 -5 -31 -10 -61 -10 -36 0 -54 -4 -54 -12 0 -10 -2 -10 -8 0 -5 7
-22 12 -38 12 -16 0 -120 2 -231 5 -128 3 -212 1 -229 -5 -16 -7 -30 -7 -33
-2 -3 5 -42 12 -87 16 -73 5 -83 4 -99 -14z"/>
<path d="M14400 1092 c0 -12 46 -32 75 -32 14 0 25 -4 25 -10 0 -6 9 -6 26 0
33 13 69 13 39 0 -17 -7 -17 -9 -3 -9 12 -1 17 -8 15 -23 -2 -19 4 -24 31 -26
31 -3 33 -1 27 18 -6 18 -3 21 12 18 10 -2 17 -11 17 -21 -2 -14 7 -17 42 -17
36 0 44 3 44 18 0 10 6 26 13 36 12 17 14 16 24 -7 11 -22 10 -24 -9 -19 -15
3 -19 1 -16 -9 2 -8 14 -15 26 -17 17 -3 22 2 22 17 0 15 6 21 21 21 11 0 18
-4 15 -8 -2 -4 -1 -14 5 -22 7 -12 9 -10 9 7 0 12 8 24 18 26 9 3 -4 5 -30 6
-27 0 -48 6 -48 12 0 7 22 9 68 6 83 -7 149 1 156 19 4 11 -9 13 -60 12 -36
-2 -68 -6 -70 -10 -3 -5 -10 -5 -16 -1 -7 3 -93 8 -192 9 -100 2 -205 6 -233
9 -30 4 -53 2 -53 -3z"/>
<path d="M5448 914 c-2 -2 -110 -6 -239 -10 -128 -3 -241 -10 -249 -15 -22
-14 777 -5 815 9 27 9 22 10 -41 11 -39 1 -118 3 -177 5 -58 2 -107 3 -109 0z"/>
<path d="M7648 655 c-6 -6 -390 -17 -503 -15 -37 1 -67 -4 -79 -13 -15 -11
-28 -12 -60 -4 -29 8 -41 7 -44 -1 -5 -17 -27 -15 -43 4 -8 10 -21 13 -38 9
-14 -4 -149 -8 -301 -10 -407 -5 -894 -16 -901 -20 -3 -2 -95 -5 -205 -6 -293
-2 -552 -20 -564 -39 -14 -22 -7 -33 26 -43 38 -12 542 -11 919 3 508 18 801
29 1030 40 121 5 360 14 530 19 171 5 318 13 328 16 22 9 22 19 0 45 -16 19
-81 29 -95 15z"/>
<path d="M11120 544 c-25 -2 -130 -9 -235 -15 -104 -6 -324 -21 -487 -33 -282
-22 -338 -31 -323 -56 5 -8 26 -7 475 16 175 10 577 19 990 22 382 3 670 9
640 13 -332 41 -879 68 -1060 53z"/>
<path d="M8493 487 c-39 -60 -42 -87 -10 -87 12 0 54 -7 92 -16 116 -27 167
-28 235 -5 53 19 83 21 268 21 187 0 212 2 248 20 l39 19 -200 0 c-110 0 -267
-4 -350 -9 -160 -10 -175 -6 -175 36 0 16 -6 24 -17 25 -103 7 -124 6 -130 -4z"/>
<path d="M6956 463 c-2 -3 -154 -8 -611 -23 -692 -22 -990 -30 -1275 -35 -461
-9 -544 -12 -562 -20 -16 -6 -16 -8 0 -25 28 -30 110 -51 242 -62 123 -11 292
-7 885 23 105 5 296 14 426 19 143 5 260 15 295 23 66 17 185 32 377 47 70 6
139 15 152 20 13 5 52 12 87 16 82 9 108 23 39 21 -29 -1 -54 -3 -55 -4z"/>
</g>
</svg>
